<mxfile host="Electron" modified="2023-06-30T21:34:15.745Z" agent="Mozilla/5.0 (Windows NT 10.0; Win64; x64) AppleWebKit/537.36 (KHTML, like Gecko) draw.io/21.1.2 Chrome/106.0.5249.199 Electron/21.4.3 Safari/537.36" etag="qwg3b-7oogBzbXLv-s8o" version="21.1.2" type="device">
  <diagram id="C5RBs43oDa-KdzZeNtuy" name="Page-1">
    <mxGraphModel dx="1036" dy="614" grid="1" gridSize="10" guides="1" tooltips="1" connect="1" arrows="1" fold="1" page="1" pageScale="1" pageWidth="827" pageHeight="1169" math="0" shadow="0">
      <root>
        <mxCell id="WIyWlLk6GJQsqaUBKTNV-0" />
        <mxCell id="WIyWlLk6GJQsqaUBKTNV-1" parent="WIyWlLk6GJQsqaUBKTNV-0" />
        <mxCell id="3ODWMDdF5giHEPFokoJv-30" value="No" style="edgeStyle=orthogonalEdgeStyle;rounded=0;html=1;jettySize=auto;orthogonalLoop=1;fontSize=11;endArrow=block;endFill=0;endSize=8;strokeWidth=1;shadow=0;labelBackgroundColor=none;exitX=0.5;exitY=1;exitDx=0;exitDy=0;entryX=0.5;entryY=0;entryDx=0;entryDy=0;" parent="WIyWlLk6GJQsqaUBKTNV-1" source="yX-z3MhCQMxRsPNPZi3w-25" edge="1" target="3ODWMDdF5giHEPFokoJv-35">
          <mxGeometry x="-0.3333" y="10" relative="1" as="geometry">
            <mxPoint as="offset" />
            <mxPoint x="90" y="480" as="sourcePoint" />
            <mxPoint x="90" y="520" as="targetPoint" />
          </mxGeometry>
        </mxCell>
        <mxCell id="3ODWMDdF5giHEPFokoJv-34" value="No" style="edgeStyle=orthogonalEdgeStyle;rounded=0;html=1;jettySize=auto;orthogonalLoop=1;fontSize=11;endArrow=block;endFill=0;endSize=8;strokeWidth=1;shadow=0;labelBackgroundColor=none;exitX=0.5;exitY=1;exitDx=0;exitDy=0;entryX=0.5;entryY=0;entryDx=0;entryDy=0;" parent="WIyWlLk6GJQsqaUBKTNV-1" source="3ODWMDdF5giHEPFokoJv-35" target="yX-z3MhCQMxRsPNPZi3w-51" edge="1">
          <mxGeometry y="10" relative="1" as="geometry">
            <mxPoint as="offset" />
            <mxPoint x="150" y="610" as="sourcePoint" />
            <mxPoint x="90" y="640" as="targetPoint" />
          </mxGeometry>
        </mxCell>
        <mxCell id="uM95P8qj20Q9V8Xoz-YP-9" value="" style="edgeStyle=orthogonalEdgeStyle;rounded=0;orthogonalLoop=1;jettySize=auto;html=1;" edge="1" parent="WIyWlLk6GJQsqaUBKTNV-1" source="3ODWMDdF5giHEPFokoJv-35" target="uM95P8qj20Q9V8Xoz-YP-6">
          <mxGeometry relative="1" as="geometry" />
        </mxCell>
        <mxCell id="3ODWMDdF5giHEPFokoJv-35" value="&lt;font face=&quot;calibri&quot; style=&quot;font-size: 11.29px;&quot;&gt;Counter ==2&lt;/font&gt;" style="rhombus;whiteSpace=wrap;html=1;shadow=0;fontFamily=Helvetica;fontSize=12;align=center;strokeWidth=1;spacing=6;spacingTop=-4;fillColor=#fff2cc;strokeColor=#d6b656;" parent="WIyWlLk6GJQsqaUBKTNV-1" vertex="1">
          <mxGeometry x="40" y="460" width="100" height="80" as="geometry" />
        </mxCell>
        <mxCell id="uM95P8qj20Q9V8Xoz-YP-8" value="" style="edgeStyle=orthogonalEdgeStyle;rounded=0;orthogonalLoop=1;jettySize=auto;html=1;" edge="1" parent="WIyWlLk6GJQsqaUBKTNV-1" source="yX-z3MhCQMxRsPNPZi3w-25" target="uM95P8qj20Q9V8Xoz-YP-7">
          <mxGeometry relative="1" as="geometry" />
        </mxCell>
        <mxCell id="yX-z3MhCQMxRsPNPZi3w-25" value="&lt;font face=&quot;calibri&quot; style=&quot;font-size: 11.29px;&quot;&gt;Counter== 1&lt;/font&gt;" style="rhombus;whiteSpace=wrap;html=1;shadow=0;fontFamily=Helvetica;fontSize=12;align=center;strokeWidth=1;spacing=6;spacingTop=-4;fillColor=#fff2cc;strokeColor=#d6b656;" parent="WIyWlLk6GJQsqaUBKTNV-1" vertex="1">
          <mxGeometry x="40" y="350" width="100" height="80" as="geometry" />
        </mxCell>
        <mxCell id="yX-z3MhCQMxRsPNPZi3w-36" value="No" style="edgeStyle=orthogonalEdgeStyle;rounded=0;html=1;jettySize=auto;orthogonalLoop=1;fontSize=11;endArrow=block;endFill=0;endSize=8;strokeWidth=1;shadow=0;labelBackgroundColor=none;exitX=0.5;exitY=1;exitDx=0;exitDy=0;entryX=0.5;entryY=0;entryDx=0;entryDy=0;" parent="WIyWlLk6GJQsqaUBKTNV-1" source="yX-z3MhCQMxRsPNPZi3w-38" edge="1" target="yX-z3MhCQMxRsPNPZi3w-25">
          <mxGeometry x="-0.3333" y="10" relative="1" as="geometry">
            <mxPoint as="offset" />
            <mxPoint x="90" y="340" as="sourcePoint" />
            <mxPoint x="90" y="380" as="targetPoint" />
          </mxGeometry>
        </mxCell>
        <mxCell id="uM95P8qj20Q9V8Xoz-YP-12" value="" style="edgeStyle=orthogonalEdgeStyle;rounded=0;orthogonalLoop=1;jettySize=auto;html=1;" edge="1" parent="WIyWlLk6GJQsqaUBKTNV-1" source="yX-z3MhCQMxRsPNPZi3w-38" target="yX-z3MhCQMxRsPNPZi3w-44">
          <mxGeometry relative="1" as="geometry" />
        </mxCell>
        <mxCell id="yX-z3MhCQMxRsPNPZi3w-38" value="&lt;font style=&quot;font-size: 11.29px;&quot; face=&quot;calibri&quot;&gt;Couter== 0&lt;/font&gt;" style="rhombus;whiteSpace=wrap;html=1;shadow=0;fontFamily=Helvetica;fontSize=12;align=center;strokeWidth=1;spacing=6;spacingTop=-4;fillColor=#fff2cc;strokeColor=#d6b656;" parent="WIyWlLk6GJQsqaUBKTNV-1" vertex="1">
          <mxGeometry x="40" y="240" width="100" height="80" as="geometry" />
        </mxCell>
        <mxCell id="yX-z3MhCQMxRsPNPZi3w-44" value="&lt;div style=&quot;&quot;&gt;&lt;font style=&quot;font-size: 11.29px;&quot; face=&quot;calibri&quot;&gt;LED_off(RED_LED)&lt;/font&gt;&lt;br&gt;&lt;/div&gt;&lt;div style=&quot;&quot;&gt;&lt;font style=&quot;font-size: 11.29px;&quot; face=&quot;calibri&quot;&gt;LED_off(GREEN_LED)&lt;/font&gt;&lt;/div&gt;&lt;div style=&quot;&quot;&gt;&lt;font style=&quot;font-size: 11.29px;&quot; face=&quot;calibri&quot;&gt;LED_off(BLUE_LED)&lt;/font&gt;&lt;/div&gt;" style="rounded=0;whiteSpace=wrap;html=1;fillColor=#d5e8d4;strokeColor=#82b366;" parent="WIyWlLk6GJQsqaUBKTNV-1" vertex="1">
          <mxGeometry x="200" y="250" width="120" height="60" as="geometry" />
        </mxCell>
        <mxCell id="yX-z3MhCQMxRsPNPZi3w-49" value="No" style="edgeStyle=orthogonalEdgeStyle;rounded=0;html=1;jettySize=auto;orthogonalLoop=1;fontSize=11;endArrow=block;endFill=0;endSize=8;strokeWidth=1;shadow=0;labelBackgroundColor=none;exitX=0.5;exitY=1;exitDx=0;exitDy=0;entryX=0.5;entryY=0;entryDx=0;entryDy=0;" parent="WIyWlLk6GJQsqaUBKTNV-1" source="yX-z3MhCQMxRsPNPZi3w-51" target="uM95P8qj20Q9V8Xoz-YP-0" edge="1">
          <mxGeometry x="-0.3333" y="10" relative="1" as="geometry">
            <mxPoint as="offset" />
            <mxPoint x="90" y="764" as="sourcePoint" />
            <mxPoint x="90" y="820" as="targetPoint" />
          </mxGeometry>
        </mxCell>
        <mxCell id="uM95P8qj20Q9V8Xoz-YP-10" value="" style="edgeStyle=orthogonalEdgeStyle;rounded=0;orthogonalLoop=1;jettySize=auto;html=1;" edge="1" parent="WIyWlLk6GJQsqaUBKTNV-1" source="yX-z3MhCQMxRsPNPZi3w-51" target="uM95P8qj20Q9V8Xoz-YP-4">
          <mxGeometry relative="1" as="geometry" />
        </mxCell>
        <mxCell id="yX-z3MhCQMxRsPNPZi3w-51" value="&lt;font style=&quot;font-size: 11.29px;&quot; face=&quot;calibri&quot;&gt;Counter == 3&lt;/font&gt;" style="rhombus;whiteSpace=wrap;html=1;shadow=0;fontFamily=Helvetica;fontSize=12;align=center;strokeWidth=1;spacing=6;spacingTop=-4;fillColor=#fff2cc;strokeColor=#d6b656;" parent="WIyWlLk6GJQsqaUBKTNV-1" vertex="1">
          <mxGeometry x="40" y="570" width="100" height="80" as="geometry" />
        </mxCell>
        <mxCell id="yX-z3MhCQMxRsPNPZi3w-63" value="&lt;font style=&quot;font-size: 11.29px;&quot; face=&quot;calibri&quot;&gt;end&lt;/font&gt;" style="ellipse;whiteSpace=wrap;html=1;fillColor=#dae8fc;strokeColor=#6c8ebf;" parent="WIyWlLk6GJQsqaUBKTNV-1" vertex="1">
          <mxGeometry x="30" y="790" width="120" height="50" as="geometry" />
        </mxCell>
        <mxCell id="yX-z3MhCQMxRsPNPZi3w-64" value="&lt;font style=&quot;font-size: 11.29px;&quot; face=&quot;calibri&quot;&gt;start&lt;/font&gt;" style="ellipse;whiteSpace=wrap;html=1;fillColor=#dae8fc;strokeColor=#6c8ebf;" parent="WIyWlLk6GJQsqaUBKTNV-1" vertex="1">
          <mxGeometry x="570" y="190" width="120" height="50" as="geometry" />
        </mxCell>
        <mxCell id="yX-z3MhCQMxRsPNPZi3w-66" value="" style="endArrow=classic;html=1;rounded=0;exitX=1;exitY=0.5;exitDx=0;exitDy=0;entryX=1;entryY=0.5;entryDx=0;entryDy=0;" parent="WIyWlLk6GJQsqaUBKTNV-1" source="yX-z3MhCQMxRsPNPZi3w-44" target="yX-z3MhCQMxRsPNPZi3w-63" edge="1">
          <mxGeometry width="50" height="50" relative="1" as="geometry">
            <mxPoint x="210" y="620" as="sourcePoint" />
            <mxPoint x="260" y="570" as="targetPoint" />
            <Array as="points">
              <mxPoint x="400" y="280" />
              <mxPoint x="400" y="815" />
            </Array>
          </mxGeometry>
        </mxCell>
        <mxCell id="yX-z3MhCQMxRsPNPZi3w-71" value="" style="endArrow=classic;html=1;rounded=0;exitX=0.5;exitY=1;exitDx=0;exitDy=0;entryX=1;entryY=0.5;entryDx=0;entryDy=0;" parent="WIyWlLk6GJQsqaUBKTNV-1" source="yX-z3MhCQMxRsPNPZi3w-64" target="uM95P8qj20Q9V8Xoz-YP-19" edge="1">
          <mxGeometry width="50" height="50" relative="1" as="geometry">
            <mxPoint x="800" y="440" as="sourcePoint" />
            <mxPoint x="630" y="260" as="targetPoint" />
            <Array as="points">
              <mxPoint x="630" y="310" />
            </Array>
          </mxGeometry>
        </mxCell>
        <mxCell id="yX-z3MhCQMxRsPNPZi3w-72" value="&lt;b&gt;&lt;font style=&quot;font-size: 14px;&quot; face=&quot;calibri&quot;&gt;void APP_start (void);&lt;/font&gt;&lt;/b&gt;" style="text;html=1;align=center;verticalAlign=middle;resizable=0;points=[];autosize=1;strokeColor=none;fillColor=none;" parent="WIyWlLk6GJQsqaUBKTNV-1" vertex="1">
          <mxGeometry x="430" y="160" width="150" height="30" as="geometry" />
        </mxCell>
        <mxCell id="uM95P8qj20Q9V8Xoz-YP-1" style="edgeStyle=orthogonalEdgeStyle;rounded=0;orthogonalLoop=1;jettySize=auto;html=1;entryX=0.5;entryY=0;entryDx=0;entryDy=0;" edge="1" parent="WIyWlLk6GJQsqaUBKTNV-1" source="uM95P8qj20Q9V8Xoz-YP-0" target="yX-z3MhCQMxRsPNPZi3w-63">
          <mxGeometry relative="1" as="geometry" />
        </mxCell>
        <mxCell id="uM95P8qj20Q9V8Xoz-YP-11" value="" style="edgeStyle=orthogonalEdgeStyle;rounded=0;orthogonalLoop=1;jettySize=auto;html=1;" edge="1" parent="WIyWlLk6GJQsqaUBKTNV-1" source="uM95P8qj20Q9V8Xoz-YP-0" target="uM95P8qj20Q9V8Xoz-YP-5">
          <mxGeometry relative="1" as="geometry" />
        </mxCell>
        <mxCell id="uM95P8qj20Q9V8Xoz-YP-0" value="&lt;font style=&quot;font-size: 11.29px;&quot; face=&quot;calibri&quot;&gt;Counter == 4&lt;/font&gt;" style="rhombus;whiteSpace=wrap;html=1;shadow=0;fontFamily=Helvetica;fontSize=12;align=center;strokeWidth=1;spacing=6;spacingTop=-4;fillColor=#fff2cc;strokeColor=#d6b656;" vertex="1" parent="WIyWlLk6GJQsqaUBKTNV-1">
          <mxGeometry x="40" y="680" width="100" height="80" as="geometry" />
        </mxCell>
        <mxCell id="uM95P8qj20Q9V8Xoz-YP-17" style="edgeStyle=orthogonalEdgeStyle;rounded=0;orthogonalLoop=1;jettySize=auto;html=1;" edge="1" parent="WIyWlLk6GJQsqaUBKTNV-1" source="uM95P8qj20Q9V8Xoz-YP-4">
          <mxGeometry relative="1" as="geometry">
            <mxPoint x="400" y="610" as="targetPoint" />
          </mxGeometry>
        </mxCell>
        <mxCell id="uM95P8qj20Q9V8Xoz-YP-4" value="&lt;div style=&quot;&quot;&gt;&lt;span style=&quot;font-size: 11.29px; font-family: calibri; background-color: initial;&quot;&gt;LED_off(GREEN_LED)&lt;/span&gt;&lt;br&gt;&lt;/div&gt;&lt;div style=&quot;&quot;&gt;&lt;font style=&quot;font-size: 11.29px;&quot; face=&quot;calibri&quot;&gt;LED_on(BLUE_LED)&lt;/font&gt;&lt;/div&gt;" style="rounded=0;whiteSpace=wrap;html=1;fillColor=#d5e8d4;strokeColor=#82b366;" vertex="1" parent="WIyWlLk6GJQsqaUBKTNV-1">
          <mxGeometry x="200" y="580" width="120" height="60" as="geometry" />
        </mxCell>
        <mxCell id="uM95P8qj20Q9V8Xoz-YP-18" style="edgeStyle=orthogonalEdgeStyle;rounded=0;orthogonalLoop=1;jettySize=auto;html=1;" edge="1" parent="WIyWlLk6GJQsqaUBKTNV-1" source="uM95P8qj20Q9V8Xoz-YP-5">
          <mxGeometry relative="1" as="geometry">
            <mxPoint x="400" y="720" as="targetPoint" />
          </mxGeometry>
        </mxCell>
        <mxCell id="uM95P8qj20Q9V8Xoz-YP-5" value="&lt;div style=&quot;&quot;&gt;&lt;font style=&quot;font-size: 11.29px;&quot; face=&quot;calibri&quot;&gt;LED_on(RED_LED)&lt;/font&gt;&lt;br&gt;&lt;/div&gt;&lt;div style=&quot;&quot;&gt;&lt;font style=&quot;font-size: 11.29px;&quot; face=&quot;calibri&quot;&gt;LED_on(GREEN_LED)&lt;/font&gt;&lt;/div&gt;&lt;div style=&quot;&quot;&gt;&lt;font style=&quot;font-size: 11.29px;&quot; face=&quot;calibri&quot;&gt;LED_on(BLUE_LED)&lt;/font&gt;&lt;/div&gt;" style="rounded=0;whiteSpace=wrap;html=1;fillColor=#d5e8d4;strokeColor=#82b366;" vertex="1" parent="WIyWlLk6GJQsqaUBKTNV-1">
          <mxGeometry x="200" y="690" width="120" height="60" as="geometry" />
        </mxCell>
        <mxCell id="uM95P8qj20Q9V8Xoz-YP-16" style="edgeStyle=orthogonalEdgeStyle;rounded=0;orthogonalLoop=1;jettySize=auto;html=1;" edge="1" parent="WIyWlLk6GJQsqaUBKTNV-1" source="uM95P8qj20Q9V8Xoz-YP-6">
          <mxGeometry relative="1" as="geometry">
            <mxPoint x="400" y="500" as="targetPoint" />
          </mxGeometry>
        </mxCell>
        <mxCell id="uM95P8qj20Q9V8Xoz-YP-6" value="&lt;div style=&quot;&quot;&gt;&lt;font style=&quot;font-size: 11.29px;&quot; face=&quot;calibri&quot;&gt;LED_off(RED_LED)&lt;/font&gt;&lt;br&gt;&lt;/div&gt;&lt;div style=&quot;&quot;&gt;&lt;font style=&quot;font-size: 11.29px;&quot; face=&quot;calibri&quot;&gt;LED_on(GREEN_LED)&lt;/font&gt;&lt;/div&gt;" style="rounded=0;whiteSpace=wrap;html=1;fillColor=#d5e8d4;strokeColor=#82b366;" vertex="1" parent="WIyWlLk6GJQsqaUBKTNV-1">
          <mxGeometry x="200" y="470" width="120" height="60" as="geometry" />
        </mxCell>
        <mxCell id="uM95P8qj20Q9V8Xoz-YP-15" style="edgeStyle=orthogonalEdgeStyle;rounded=0;orthogonalLoop=1;jettySize=auto;html=1;" edge="1" parent="WIyWlLk6GJQsqaUBKTNV-1" source="uM95P8qj20Q9V8Xoz-YP-7">
          <mxGeometry relative="1" as="geometry">
            <mxPoint x="400" y="390" as="targetPoint" />
          </mxGeometry>
        </mxCell>
        <mxCell id="uM95P8qj20Q9V8Xoz-YP-7" value="&lt;div style=&quot;&quot;&gt;&lt;font style=&quot;font-size: 11.29px;&quot; face=&quot;calibri&quot;&gt;LED_on(RED_LED)&lt;/font&gt;&lt;/div&gt;" style="rounded=0;whiteSpace=wrap;html=1;fillColor=#d5e8d4;strokeColor=#82b366;" vertex="1" parent="WIyWlLk6GJQsqaUBKTNV-1">
          <mxGeometry x="200" y="360" width="120" height="60" as="geometry" />
        </mxCell>
        <mxCell id="uM95P8qj20Q9V8Xoz-YP-24" style="edgeStyle=orthogonalEdgeStyle;rounded=0;orthogonalLoop=1;jettySize=auto;html=1;entryX=1;entryY=0.5;entryDx=0;entryDy=0;" edge="1" parent="WIyWlLk6GJQsqaUBKTNV-1" source="uM95P8qj20Q9V8Xoz-YP-19" target="uM95P8qj20Q9V8Xoz-YP-22">
          <mxGeometry relative="1" as="geometry" />
        </mxCell>
        <mxCell id="uM95P8qj20Q9V8Xoz-YP-19" value="&lt;font style=&quot;font-size: 11.29px;&quot; face=&quot;calibri&quot;&gt;BTN_read==TRUE&lt;/font&gt;" style="rhombus;whiteSpace=wrap;html=1;shadow=0;fontFamily=Helvetica;fontSize=12;align=center;strokeWidth=1;spacing=6;spacingTop=-4;fillColor=#fff2cc;strokeColor=#d6b656;" vertex="1" parent="WIyWlLk6GJQsqaUBKTNV-1">
          <mxGeometry x="510" y="270" width="100" height="80" as="geometry" />
        </mxCell>
        <mxCell id="uM95P8qj20Q9V8Xoz-YP-21" style="edgeStyle=orthogonalEdgeStyle;rounded=0;orthogonalLoop=1;jettySize=auto;html=1;entryX=0;entryY=0.5;entryDx=0;entryDy=0;" edge="1" parent="WIyWlLk6GJQsqaUBKTNV-1" source="uM95P8qj20Q9V8Xoz-YP-19" target="uM95P8qj20Q9V8Xoz-YP-19">
          <mxGeometry relative="1" as="geometry">
            <mxPoint x="500" y="310" as="targetPoint" />
            <Array as="points">
              <mxPoint x="560" y="250" />
              <mxPoint x="490" y="250" />
              <mxPoint x="490" y="310" />
            </Array>
          </mxGeometry>
        </mxCell>
        <mxCell id="uM95P8qj20Q9V8Xoz-YP-25" style="edgeStyle=orthogonalEdgeStyle;rounded=0;orthogonalLoop=1;jettySize=auto;html=1;exitX=0.5;exitY=0;exitDx=0;exitDy=0;entryX=0.5;entryY=0;entryDx=0;entryDy=0;" edge="1" parent="WIyWlLk6GJQsqaUBKTNV-1" source="uM95P8qj20Q9V8Xoz-YP-22" target="yX-z3MhCQMxRsPNPZi3w-38">
          <mxGeometry relative="1" as="geometry">
            <mxPoint x="140" y="170" as="targetPoint" />
            <Array as="points">
              <mxPoint x="560" y="410" />
              <mxPoint x="460" y="410" />
              <mxPoint x="460" y="220" />
              <mxPoint x="90" y="220" />
            </Array>
          </mxGeometry>
        </mxCell>
        <mxCell id="uM95P8qj20Q9V8Xoz-YP-22" value="&lt;font style=&quot;font-size: 11.29px;&quot; face=&quot;calibri&quot;&gt;BTN_read==FALSE&lt;/font&gt;" style="rhombus;whiteSpace=wrap;html=1;shadow=0;fontFamily=Helvetica;fontSize=12;align=center;strokeWidth=1;spacing=6;spacingTop=-4;fillColor=#fff2cc;strokeColor=#d6b656;" vertex="1" parent="WIyWlLk6GJQsqaUBKTNV-1">
          <mxGeometry x="510" y="430" width="100" height="80" as="geometry" />
        </mxCell>
        <mxCell id="uM95P8qj20Q9V8Xoz-YP-23" style="edgeStyle=orthogonalEdgeStyle;rounded=0;orthogonalLoop=1;jettySize=auto;html=1;entryX=0;entryY=0.5;entryDx=0;entryDy=0;" edge="1" parent="WIyWlLk6GJQsqaUBKTNV-1" source="uM95P8qj20Q9V8Xoz-YP-22" target="uM95P8qj20Q9V8Xoz-YP-22">
          <mxGeometry relative="1" as="geometry">
            <mxPoint x="500" y="470" as="targetPoint" />
            <Array as="points">
              <mxPoint x="560" y="530" />
              <mxPoint x="490" y="530" />
              <mxPoint x="490" y="470" />
            </Array>
          </mxGeometry>
        </mxCell>
        <mxCell id="uM95P8qj20Q9V8Xoz-YP-26" value="&lt;font style=&quot;font-size: 11.29px;&quot;&gt;Yes&lt;/font&gt;" style="text;html=1;align=center;verticalAlign=middle;resizable=0;points=[];autosize=1;strokeColor=none;fillColor=none;" vertex="1" parent="WIyWlLk6GJQsqaUBKTNV-1">
          <mxGeometry x="490" y="250" width="40" height="30" as="geometry" />
        </mxCell>
        <mxCell id="uM95P8qj20Q9V8Xoz-YP-27" value="&lt;font style=&quot;font-size: 11.29px;&quot;&gt;Yes&lt;/font&gt;" style="text;html=1;align=center;verticalAlign=middle;resizable=0;points=[];autosize=1;strokeColor=none;fillColor=none;" vertex="1" parent="WIyWlLk6GJQsqaUBKTNV-1">
          <mxGeometry x="490" y="500" width="40" height="30" as="geometry" />
        </mxCell>
        <mxCell id="uM95P8qj20Q9V8Xoz-YP-28" value="&lt;font style=&quot;font-size: 11.29px;&quot;&gt;Yes&lt;/font&gt;" style="text;html=1;align=center;verticalAlign=middle;resizable=0;points=[];autosize=1;strokeColor=none;fillColor=none;" vertex="1" parent="WIyWlLk6GJQsqaUBKTNV-1">
          <mxGeometry x="140" y="700" width="40" height="30" as="geometry" />
        </mxCell>
        <mxCell id="uM95P8qj20Q9V8Xoz-YP-29" value="&lt;font style=&quot;font-size: 11.29px;&quot;&gt;No&lt;/font&gt;" style="text;html=1;align=center;verticalAlign=middle;resizable=0;points=[];autosize=1;strokeColor=none;fillColor=none;" vertex="1" parent="WIyWlLk6GJQsqaUBKTNV-1">
          <mxGeometry x="560" y="350" width="40" height="30" as="geometry" />
        </mxCell>
        <mxCell id="uM95P8qj20Q9V8Xoz-YP-30" value="&lt;font style=&quot;font-size: 11.29px;&quot;&gt;Yes&lt;/font&gt;" style="text;html=1;align=center;verticalAlign=middle;resizable=0;points=[];autosize=1;strokeColor=none;fillColor=none;" vertex="1" parent="WIyWlLk6GJQsqaUBKTNV-1">
          <mxGeometry x="140" y="585" width="40" height="30" as="geometry" />
        </mxCell>
        <mxCell id="uM95P8qj20Q9V8Xoz-YP-31" value="&lt;font style=&quot;font-size: 11.29px;&quot;&gt;Yes&lt;/font&gt;" style="text;html=1;align=center;verticalAlign=middle;resizable=0;points=[];autosize=1;strokeColor=none;fillColor=none;" vertex="1" parent="WIyWlLk6GJQsqaUBKTNV-1">
          <mxGeometry x="150" y="480" width="40" height="30" as="geometry" />
        </mxCell>
        <mxCell id="uM95P8qj20Q9V8Xoz-YP-32" value="&lt;font style=&quot;font-size: 11.29px;&quot;&gt;Yes&lt;/font&gt;" style="text;html=1;align=center;verticalAlign=middle;resizable=0;points=[];autosize=1;strokeColor=none;fillColor=none;" vertex="1" parent="WIyWlLk6GJQsqaUBKTNV-1">
          <mxGeometry x="150" y="370" width="40" height="30" as="geometry" />
        </mxCell>
        <mxCell id="uM95P8qj20Q9V8Xoz-YP-33" value="&lt;font style=&quot;font-size: 11.29px;&quot;&gt;Yes&lt;/font&gt;" style="text;html=1;align=center;verticalAlign=middle;resizable=0;points=[];autosize=1;strokeColor=none;fillColor=none;" vertex="1" parent="WIyWlLk6GJQsqaUBKTNV-1">
          <mxGeometry x="140" y="260" width="40" height="30" as="geometry" />
        </mxCell>
        <mxCell id="uM95P8qj20Q9V8Xoz-YP-36" value="&lt;font style=&quot;font-size: 11.29px;&quot;&gt;No&lt;/font&gt;" style="text;html=1;align=center;verticalAlign=middle;resizable=0;points=[];autosize=1;strokeColor=none;fillColor=none;" vertex="1" parent="WIyWlLk6GJQsqaUBKTNV-1">
          <mxGeometry x="80" y="760" width="40" height="30" as="geometry" />
        </mxCell>
        <mxCell id="uM95P8qj20Q9V8Xoz-YP-37" value="&lt;font style=&quot;font-size: 11.29px;&quot;&gt;No&lt;/font&gt;" style="text;html=1;align=center;verticalAlign=middle;resizable=0;points=[];autosize=1;strokeColor=none;fillColor=none;" vertex="1" parent="WIyWlLk6GJQsqaUBKTNV-1">
          <mxGeometry x="520" y="410" width="40" height="30" as="geometry" />
        </mxCell>
      </root>
    </mxGraphModel>
  </diagram>
</mxfile>
